<svg xmlns="http://www.w3.org/2000/svg" viewBox="0 0 180 180">
  <defs>
    <linearGradient id="bg" x1="0%" y1="0%" x2="100%" y2="100%">
      <stop offset="0%" style="stop-color:#0d9488"/>
      <stop offset="100%" style="stop-color:#14532d"/>
    </linearGradient>
  </defs>
  <rect width="180" height="180" rx="38" fill="url(#bg)"/>
  <g transform="translate(90,80)" fill="none" stroke="white" stroke-width="5" stroke-linecap="round" stroke-linejoin="round">
    <path d="M0,-30 C-22,-30 -44,-22 -44,0 L-44,30 C-44,15 -22,15 0,15" fill="rgba(255,255,255,0.15)"/>
    <path d="M0,-30 C22,-30 44,-22 44,0 L44,30 C44,15 22,15 0,15" fill="rgba(255,255,255,0.15)"/>
    <line x1="0" y1="-30" x2="0" y2="15"/>
  </g>
  <g transform="translate(90,36)">
    <circle cx="0" cy="0" r="10" fill="white" opacity="0.9"/>
    <circle cx="4" cy="-3" r="8" fill="url(#bg)"/>
  </g>
  <polygon points="108,28 110,34 116,34 111,38 113,44 108,40 103,44 105,38 100,34 106,34" fill="#fbbf24"/>
  <text x="90" y="140" font-family="sans-serif" font-size="16" font-weight="700" fill="white" text-anchor="middle">Ramadhan</text>
  <text x="90" y="158" font-family="sans-serif" font-size="12" font-weight="500" fill="rgba(255,255,255,0.8)" text-anchor="middle">Quran</text>
</svg>
